<?xml version="1.0" encoding="utf-8"?>
<!-- Generator: Adobe Illustrator 16.0.4, SVG Export Plug-In . SVG Version: 6.00 Build 0)  -->
<svg version="1.2" baseProfile="tiny" id="Layer_1" xmlns="http://www.w3.org/2000/svg" xmlns:xlink="http://www.w3.org/1999/xlink"
	 x="0px" y="0px" width="425px" height="114px" viewBox="0 0 425 114" overflow="visible" xml:space="preserve">
<g>
	<path fill="#2B2B2B" d="M198.355,96.802h-9.049l-1.549-10.354h-11.004l-1.553,10.354h-8.23l9.132-57.054h13.124L198.355,96.802z
		 M177.894,78.707h8.639l-4.32-28.854L177.894,78.707z"/>
	<path fill="#2B2B2B" d="M212.457,39.748h27.711v8.149h-9.37v48.905h-8.974V47.896h-9.367V39.748z"/>
	<path fill="#2B2B2B" d="M258.995,53.439c0-9.129,4.81-14.344,13.612-14.344s13.611,5.214,13.611,14.344v29.665
		c0,9.133-4.809,14.347-13.611,14.347s-13.612-5.214-13.612-14.347V53.439z M267.963,83.68c0,4.071,1.795,5.621,4.645,5.621
		c2.854,0,4.646-1.55,4.646-5.621V52.867c0-4.076-1.792-5.621-4.646-5.621c-2.85,0-4.645,1.544-4.645,5.621V83.68z"/>
	<path fill="#2B2B2B" d="M326.645,80.253l6.116-40.505h12.47v57.054h-8.479V55.883l-6.193,40.919h-8.477L315.4,56.454v40.348h-7.824
		V39.748h12.47L326.645,80.253z"/>
	<path fill="#2B2B2B" d="M367.399,39.748h8.966v57.054h-8.966V39.748z"/>
	<path fill="#2B2B2B" d="M424.535,75.525v7.579c0,9.133-4.562,14.347-13.366,14.347s-13.368-5.214-13.368-14.347V53.439
		c0-9.129,4.564-14.344,13.368-14.344s13.366,5.214,13.366,14.344v5.542h-8.477v-6.114c0-4.076-1.793-5.621-4.646-5.621
		s-4.644,1.544-4.644,5.621V83.68c0,4.071,1.791,5.541,4.644,5.541s4.646-1.47,4.646-5.541v-8.154H424.535z"/>
</g>
<g>
	<g>
		<path fill="#41C106" d="M214.551,16.569l6.523,0.07c0.535,0.006,0.989,0.036,1.361,0.087c0.371,0.055,0.676,0.128,0.914,0.224
			c0.24,0.097,0.426,0.214,0.555,0.36c0.129,0.138,0.223,0.302,0.277,0.491c0.061,0.188,0.094,0.399,0.098,0.634
			c0.008,0.234,0.01,0.49,0.008,0.772c-0.006,0.294-0.014,0.564-0.029,0.813c-0.016,0.249-0.062,0.473-0.135,0.675
			c-0.078,0.202-0.194,0.376-0.357,0.524c-0.162,0.148-0.393,0.278-0.689,0.375c-0.297,0.097-0.672,0.172-1.123,0.219
			c-0.455,0.05-1.016,0.067-1.677,0.061l-4.694-0.051l-0.035,3.435l-1.088-0.012L214.551,16.569z M215.596,20.925l4.689,0.049
			c0.482,0.006,0.887,0.002,1.221-0.016c0.328-0.011,0.597-0.042,0.814-0.081c0.214-0.043,0.379-0.105,0.498-0.189
			c0.117-0.082,0.205-0.187,0.262-0.324c0.053-0.135,0.092-0.296,0.102-0.488c0.01-0.189,0.018-0.417,0.018-0.68
			c0.006-0.242,0-0.457-0.002-0.632c-0.008-0.179-0.039-0.33-0.094-0.449c-0.054-0.119-0.142-0.216-0.254-0.289
			c-0.117-0.074-0.282-0.129-0.496-0.173c-0.213-0.043-0.484-0.073-0.811-0.083c-0.336-0.017-0.738-0.026-1.221-0.032l-4.691-0.049
			L215.596,20.925z"/>
		<path fill="#41C106" d="M216.236,25.962l-2.479-0.025l0.108-10.069l7.212,0.077c0.552,0.006,1.04,0.038,1.452,0.093
			c0.436,0.059,0.788,0.149,1.081,0.266c0.351,0.144,0.615,0.32,0.81,0.542c0.194,0.202,0.341,0.458,0.43,0.752
			c0.075,0.248,0.12,0.52,0.126,0.817c0.006,0.242,0.006,0.511,0.004,0.801c-0.004,0.303-0.01,0.588-0.027,0.849
			c-0.021,0.312-0.081,0.604-0.176,0.873c-0.119,0.309-0.303,0.578-0.539,0.797c-0.232,0.215-0.549,0.391-0.938,0.521
			c-0.348,0.117-0.781,0.2-1.277,0.253c-0.477,0.049-1.049,0.067-1.753,0.062l-3.997-0.043L216.236,25.962z M216.295,20.231
			l4.001,0.043c0.442,0.005,0.841,0.003,1.177-0.01c0.297-0.013,0.533-0.037,0.709-0.072c0.18-0.036,0.234-0.072,0.234-0.072
			c0.037-0.066,0.064-0.146,0.07-0.283c0.012-0.187,0.016-0.401,0.016-0.648c0.007-0.226,0.004-0.426,0-0.588
			c-0.006-0.126-0.025-0.182-0.035-0.198c0.002,0.014-0.064-0.026-0.25-0.066c-0.18-0.034-0.418-0.06-0.707-0.071
			c-0.322-0.009-0.721-0.023-1.195-0.029l-3.994-0.043L216.295,20.231z"/>
	</g>
	<g>
		<path fill="#41C106" d="M249.868,25.63l-1.083-0.012l0.018-1.625c0.002-0.266,0.002-0.492-0.008-0.684
			c-0.004-0.186-0.037-0.351-0.09-0.488c-0.053-0.134-0.138-0.245-0.252-0.33c-0.115-0.082-0.283-0.15-0.498-0.195
			c-0.211-0.048-0.484-0.083-0.814-0.108c-0.328-0.016-0.732-0.03-1.213-0.036l-4.877-0.054l-0.035,3.437l-1.088-0.012l0.094-8.678
			l6.143,0.064c0.658,0.007,1.221,0.038,1.672,0.091c0.453,0.054,0.826,0.128,1.119,0.226c0.297,0.1,0.522,0.216,0.68,0.359
			c0.162,0.14,0.278,0.306,0.352,0.494c0.068,0.188,0.105,0.4,0.117,0.634c0.012,0.234,0.016,0.49,0.014,0.772
			c-0.004,0.362-0.035,0.682-0.086,0.951c-0.057,0.274-0.146,0.508-0.266,0.694c-0.121,0.188-0.282,0.345-0.484,0.458
			c-0.201,0.109-0.451,0.187-0.758,0.229c0.305,0.051,0.545,0.131,0.725,0.243c0.179,0.119,0.316,0.269,0.416,0.448
			c0.09,0.184,0.156,0.398,0.183,0.646c0.029,0.25,0.042,0.528,0.039,0.852L249.868,25.63z M241.064,21.2l5.051,0.053
			c0.482,0.006,0.885,0.001,1.219-0.017c0.333-0.011,0.602-0.04,0.812-0.08c0.219-0.044,0.384-0.107,0.502-0.189
			c0.117-0.082,0.207-0.189,0.26-0.326c0.058-0.134,0.093-0.295,0.104-0.486c0.009-0.19,0.018-0.416,0.018-0.679
			c0.006-0.245,0.002-0.458-0.001-0.632c-0.011-0.177-0.039-0.329-0.095-0.451c-0.054-0.119-0.14-0.214-0.253-0.29
			c-0.118-0.07-0.283-0.126-0.5-0.17c-0.211-0.043-0.48-0.073-0.811-0.083c-0.332-0.018-0.736-0.026-1.221-0.033l-5.051-0.054
			L241.064,21.2z"/>
		<path fill="#41C106" d="M250.557,26.336l-2.478-0.027l0.026-2.322c0.002-0.254,0.002-0.467-0.005-0.65
			c-0.008-0.145-0.03-0.23-0.044-0.266c-0.02-0.019-0.07-0.059-0.252-0.098c-0.185-0.04-0.428-0.073-0.699-0.086
			c-0.356-0.021-0.752-0.035-1.186-0.038l-4.18-0.046l-0.036,3.435l-2.478-0.027l0.109-10.067l6.832,0.072
			c0.664,0.009,1.252,0.04,1.748,0.095c0.508,0.059,0.922,0.144,1.262,0.255c0.396,0.134,0.704,0.298,0.926,0.507
			c0.236,0.206,0.422,0.463,0.531,0.76c0.096,0.255,0.153,0.539,0.166,0.846c0.013,0.247,0.015,0.522,0.013,0.815
			c-0.004,0.395-0.037,0.756-0.099,1.072c-0.07,0.365-0.191,0.68-0.363,0.948c-0.086,0.125-0.184,0.245-0.287,0.35
			c0.082,0.097,0.152,0.204,0.213,0.316c0.135,0.265,0.221,0.562,0.264,0.893c0.031,0.277,0.041,0.582,0.041,0.94L250.557,26.336z
			 M241.766,20.507l4.355,0.046c0.451,0.004,0.847,0.004,1.184-0.009c0.293-0.014,0.531-0.038,0.708-0.075
			c0.177-0.033,0.235-0.07,0.235-0.07c0.035-0.066,0.059-0.146,0.068-0.285c0.01-0.183,0.018-0.398,0.021-0.646
			c0.003-0.23,0.001-0.427-0.011-0.593c0-0.125-0.023-0.18-0.029-0.195c0.004,0.006-0.061-0.026-0.249-0.065
			c-0.181-0.036-0.417-0.06-0.704-0.074c-0.326-0.009-0.725-0.021-1.199-0.026l-4.357-0.047L241.766,20.507z"/>
	</g>
	<g>
		<path fill="#41C106" d="M273.093,17.026c0.66,0.009,1.218,0.053,1.672,0.138c0.452,0.085,0.825,0.213,1.115,0.38
			c0.292,0.168,0.517,0.375,0.671,0.626c0.154,0.249,0.27,0.544,0.338,0.879c0.072,0.337,0.109,0.714,0.119,1.136
			c0.008,0.421,0.01,0.888,0.004,1.404c-0.007,0.507-0.018,0.974-0.035,1.398c-0.018,0.42-0.062,0.799-0.143,1.13
			c-0.075,0.335-0.195,0.625-0.355,0.874c-0.158,0.25-0.389,0.451-0.686,0.613c-0.293,0.154-0.67,0.275-1.123,0.351
			c-0.455,0.079-1.016,0.108-1.676,0.103l-3.266-0.034c-0.658-0.007-1.221-0.052-1.675-0.14c-0.453-0.085-0.826-0.213-1.116-0.375
			c-0.291-0.168-0.518-0.375-0.675-0.628c-0.155-0.252-0.269-0.545-0.339-0.881c-0.07-0.334-0.106-0.714-0.114-1.135
			c-0.008-0.423-0.008-0.889,0-1.397c0.004-0.515,0.013-0.983,0.03-1.403c0.016-0.423,0.061-0.8,0.141-1.133
			c0.076-0.332,0.195-0.627,0.356-0.874c0.165-0.246,0.393-0.447,0.688-0.609c0.295-0.161,0.67-0.28,1.126-0.355
			c0.454-0.075,1.013-0.109,1.675-0.102L273.093,17.026z M273.004,25.155c0.479,0.005,0.881-0.004,1.211-0.027
			c0.33-0.025,0.604-0.076,0.816-0.164c0.219-0.086,0.384-0.205,0.502-0.362c0.119-0.162,0.205-0.38,0.264-0.645
			c0.052-0.27,0.085-0.595,0.103-0.984c0.013-0.393,0.021-0.858,0.028-1.398c0.004-0.541,0.008-1.01,0.002-1.4
			c-0.01-0.389-0.036-0.718-0.083-0.986c-0.05-0.268-0.132-0.482-0.247-0.647c-0.115-0.163-0.277-0.285-0.492-0.376
			c-0.21-0.09-0.48-0.148-0.809-0.182c-0.33-0.03-0.735-0.052-1.218-0.058l-3.267-0.033c-0.48-0.007-0.885,0.005-1.216,0.029
			c-0.331,0.027-0.603,0.081-0.819,0.164c-0.213,0.085-0.381,0.207-0.504,0.367c-0.114,0.165-0.199,0.375-0.256,0.643
			c-0.057,0.266-0.092,0.595-0.1,0.982c-0.016,0.39-0.023,0.86-0.027,1.401c-0.006,0.54-0.006,1.007-0.002,1.398
			c0.002,0.387,0.031,0.717,0.084,0.981c0.047,0.268,0.127,0.49,0.244,0.652c0.111,0.161,0.277,0.281,0.488,0.374
			c0.213,0.092,0.484,0.15,0.814,0.184c0.33,0.028,0.736,0.046,1.219,0.052L273.004,25.155z"/>
		<path fill="#41C106" d="M272.986,26.757l-3.268-0.035c-0.708-0.009-1.297-0.055-1.795-0.154c-0.52-0.097-0.967-0.25-1.326-0.451
			c-0.4-0.23-0.709-0.523-0.924-0.87c-0.197-0.315-0.345-0.688-0.43-1.104c-0.08-0.374-0.123-0.801-0.131-1.263
			c-0.008-0.432-0.008-0.903-0.002-1.42c0.006-0.522,0.018-0.995,0.031-1.423c0.021-0.467,0.068-0.883,0.156-1.26
			c0.097-0.417,0.25-0.784,0.459-1.103c0.223-0.341,0.54-0.62,0.938-0.838c0.361-0.195,0.803-0.339,1.34-0.429
			c0.495-0.085,1.082-0.123,1.797-0.114l3.267,0.033c0.714,0.009,1.302,0.058,1.799,0.155c0.533,0.103,0.969,0.254,1.331,0.461
			c0.387,0.223,0.697,0.511,0.916,0.856c0.195,0.321,0.34,0.694,0.428,1.105c0.079,0.383,0.123,0.799,0.132,1.268
			c0.008,0.43,0.012,0.901,0.007,1.425c-0.011,0.516-0.023,0.989-0.039,1.418c-0.016,0.465-0.072,0.889-0.158,1.262
			c-0.096,0.416-0.247,0.782-0.451,1.098c-0.223,0.339-0.539,0.625-0.937,0.843c-0.372,0.195-0.821,0.339-1.345,0.428
			C274.287,26.729,273.697,26.764,272.986,26.757z M269.811,18.589c-0.459-0.006-0.848,0.003-1.162,0.027
			c-0.258,0.022-0.469,0.061-0.615,0.118c-0.086,0.037-0.155,0.079-0.195,0.134c-0.053,0.075-0.104,0.204-0.138,0.369
			c-0.049,0.229-0.074,0.516-0.084,0.86c-0.013,0.39-0.022,0.849-0.028,1.388c-0.006,0.535-0.002,0.996,0,1.377
			c0.006,0.348,0.03,0.64,0.071,0.87c0.041,0.209,0.089,0.321,0.132,0.383c0.035,0.046,0.098,0.091,0.189,0.128
			c0.141,0.061,0.344,0.105,0.611,0.13c0.311,0.031,0.701,0.044,1.154,0.049l3.266,0.035c0.447,0.006,0.836,0,1.154-0.023
			c0.26-0.02,0.463-0.06,0.605-0.116c0.1-0.04,0.164-0.082,0.204-0.135c0.034-0.05,0.091-0.162,0.138-0.371
			c0.045-0.222,0.076-0.516,0.09-0.866c0.014-0.382,0.021-0.841,0.029-1.376c0.004-0.538,0.006-0.998,0-1.386
			c-0.006-0.35-0.029-0.639-0.07-0.865c-0.035-0.165-0.08-0.298-0.137-0.379c-0.035-0.05-0.097-0.093-0.184-0.132
			c-0.146-0.062-0.352-0.106-0.611-0.13c-0.309-0.031-0.7-0.049-1.158-0.053L269.811,18.589z"/>
	</g>
	<g>
		<path fill="#41C106" d="M295.205,26.12c-0.543-0.006-0.979-0.061-1.311-0.162c-0.329-0.1-0.582-0.265-0.761-0.491
			c-0.177-0.231-0.3-0.525-0.354-0.898c-0.054-0.371-0.078-0.826-0.072-1.369l0.007-0.36l1.079,0.015l-0.002,0.359
			c-0.008,0.445,0.016,0.797,0.062,1.064c0.043,0.263,0.123,0.46,0.235,0.604c0.114,0.14,0.261,0.227,0.445,0.27
			c0.181,0.04,0.411,0.061,0.679,0.064l2.532,0.026c0.36,0.004,0.663-0.024,0.894-0.086c0.234-0.062,0.416-0.161,0.559-0.295
			c0.137-0.132,0.232-0.304,0.286-0.51c0.056-0.208,0.082-0.451,0.087-0.731l0.064-6.13l1.09,0.012l-0.07,6.148
			c-0.004,0.451-0.059,0.837-0.161,1.155c-0.101,0.319-0.265,0.581-0.491,0.779c-0.229,0.2-0.527,0.348-0.899,0.438
			s-0.827,0.132-1.366,0.128L295.205,26.12z"/>
		<path fill="#41C106" d="M297.726,26.845l-2.528-0.027c-0.614-0.008-1.108-0.071-1.508-0.192c-0.459-0.14-0.834-0.391-1.102-0.727
			c-0.256-0.328-0.42-0.737-0.494-1.222c-0.062-0.414-0.088-0.898-0.084-1.484l0.012-1.058l2.475,0.026l-0.01,1.057
			c-0.006,0.403,0.016,0.719,0.053,0.935c0.035,0.217,0.088,0.282,0.088,0.288c0.016,0.012,0.021,0.022,0.059,0.031
			c0.131,0.028,0.313,0.045,0.535,0.047l2.532,0.027c0.365,0.005,0.587-0.034,0.708-0.064c0.111-0.027,0.198-0.072,0.25-0.122
			c0.043-0.039,0.076-0.105,0.098-0.193c0.043-0.146,0.064-0.334,0.066-0.556l0.072-6.824l2.479,0.027l-0.075,6.841
			c-0.004,0.518-0.069,0.976-0.194,1.363c-0.141,0.434-0.373,0.804-0.696,1.087c-0.31,0.276-0.712,0.476-1.192,0.591
			C298.838,26.803,298.332,26.852,297.726,26.845z"/>
	</g>
	<g>
		<path fill="#41C106" d="M316.982,26.356l0.094-8.68l8.678,0.095l-0.012,0.907l-7.588-0.082l-0.031,2.892l7.229,0.078l-0.01,0.9
			l-7.23-0.078l-0.033,3.072l7.594,0.082l-0.014,0.905L316.982,26.356z"/>
		<polygon fill="#41C106" points="326.352,27.153 316.283,27.046 316.391,16.977 326.461,17.084 326.436,19.384 318.842,19.302 
			318.826,20.796 326.055,20.875 326.031,23.176 318.803,23.096 318.785,24.775 326.377,24.855 		"/>
	</g>
	<g>
		<path fill="#41C106" d="M350.467,20.754c0.002-0.451-0.039-0.809-0.137-1.077c-0.096-0.263-0.256-0.466-0.477-0.599
			c-0.227-0.142-0.521-0.23-0.89-0.275c-0.368-0.04-0.819-0.064-1.364-0.071l-2.538-0.026c-0.479-0.007-0.885,0.005-1.212,0.031
			c-0.33,0.026-0.606,0.078-0.82,0.163c-0.214,0.086-0.381,0.206-0.504,0.366c-0.117,0.165-0.203,0.377-0.254,0.644
			c-0.059,0.267-0.095,0.595-0.104,0.984c-0.014,0.387-0.021,0.857-0.024,1.4c-0.009,0.539-0.011,1.008-0.003,1.4
			c0.003,0.386,0.031,0.714,0.082,0.98c0.047,0.269,0.129,0.487,0.24,0.652c0.117,0.161,0.281,0.282,0.494,0.373
			c0.215,0.092,0.484,0.149,0.814,0.183c0.326,0.029,0.734,0.048,1.215,0.052l2.537,0.028c0.42,0.006,0.782,0,1.09-0.021
			c0.303-0.018,0.566-0.056,0.779-0.115c0.219-0.062,0.391-0.142,0.525-0.244c0.132-0.102,0.236-0.235,0.311-0.395
			c0.076-0.158,0.125-0.35,0.156-0.571c0.029-0.226,0.047-0.486,0.047-0.792l1.085,0.014c-0.002,0.361-0.03,0.69-0.081,0.98
			c-0.045,0.29-0.127,0.548-0.246,0.778c-0.122,0.222-0.271,0.418-0.467,0.583c-0.192,0.165-0.441,0.299-0.734,0.404
			c-0.295,0.102-0.645,0.178-1.049,0.226c-0.407,0.047-0.885,0.062-1.424,0.055l-2.539-0.026c-0.664-0.007-1.218-0.052-1.672-0.14
			c-0.453-0.085-0.826-0.211-1.119-0.375c-0.291-0.169-0.516-0.376-0.674-0.628c-0.154-0.252-0.27-0.543-0.34-0.882
			c-0.066-0.332-0.107-0.712-0.115-1.133c-0.004-0.422-0.006-0.889,0-1.398c0.008-0.516,0.016-0.983,0.029-1.403
			c0.02-0.423,0.064-0.798,0.141-1.133c0.078-0.332,0.195-0.626,0.357-0.875c0.166-0.245,0.393-0.447,0.689-0.607
			c0.295-0.161,0.67-0.282,1.127-0.357c0.455-0.072,1.01-0.107,1.672-0.101l2.541,0.028c0.541,0.007,1.014,0.035,1.422,0.091
			c0.406,0.055,0.752,0.132,1.044,0.242c0.292,0.105,0.535,0.238,0.724,0.398c0.194,0.159,0.344,0.346,0.459,0.568
			c0.111,0.21,0.188,0.46,0.229,0.727c0.047,0.273,0.062,0.577,0.057,0.905L350.467,20.754z"/>
		<path fill="#41C106" d="M347.506,27.563l-2.537-0.027c-0.701-0.008-1.307-0.06-1.797-0.155c-0.516-0.095-0.965-0.252-1.325-0.45
			c-0.396-0.229-0.706-0.52-0.923-0.869c-0.199-0.317-0.35-0.688-0.431-1.104c-0.083-0.38-0.124-0.808-0.132-1.27
			c-0.004-0.425-0.011-0.896-0.004-1.414c0.006-0.523,0.02-0.995,0.035-1.422c0.018-0.459,0.068-0.883,0.153-1.262
			c0.099-0.416,0.252-0.789,0.459-1.1c0.229-0.343,0.542-0.625,0.938-0.839c0.362-0.198,0.803-0.34,1.342-0.431
			c0.494-0.085,1.084-0.123,1.794-0.116l2.542,0.029c0.561,0.006,1.068,0.039,1.508,0.102c0.449,0.061,0.854,0.153,1.189,0.279
			c0.371,0.132,0.683,0.308,0.938,0.522c0.255,0.212,0.465,0.477,0.62,0.776c0.146,0.275,0.249,0.59,0.307,0.939
			c0.046,0.316,0.065,0.658,0.062,1.021l-0.006,0.699l-2.477-0.027l0.01-0.7c0.006-0.454-0.053-0.701-0.098-0.827
			c-0.054-0.152-0.127-0.21-0.188-0.248c-0.096-0.056-0.273-0.135-0.605-0.17c-0.334-0.041-0.766-0.062-1.285-0.068l-2.541-0.028
			c-0.454-0.005-0.843,0.005-1.156,0.028c-0.258,0.022-0.469,0.061-0.616,0.117c-0.089,0.037-0.151,0.079-0.194,0.134
			c-0.055,0.076-0.104,0.208-0.139,0.371c-0.047,0.223-0.076,0.514-0.085,0.862c-0.013,0.385-0.021,0.847-0.027,1.388
			c-0.006,0.532-0.006,0.993-0.003,1.376c0.003,0.348,0.03,0.644,0.072,0.868c0.037,0.211,0.092,0.326,0.137,0.382
			c0.008,0.016,0.049,0.074,0.183,0.129c0.144,0.06,0.351,0.104,0.614,0.131c0.311,0.03,0.705,0.044,1.152,0.05l2.539,0.026
			c0.422,0.004,0.76-0.002,1.033-0.018c0.264-0.014,0.477-0.047,0.64-0.092c0.161-0.046,0.243-0.089,0.284-0.12
			c0.047-0.035,0.082-0.082,0.112-0.145c0.026-0.06,0.068-0.171,0.093-0.369c0.023-0.192,0.041-0.428,0.043-0.703l0.008-0.695
			l2.475,0.027l-0.006,0.696c-0.006,0.395-0.035,0.758-0.088,1.082c-0.057,0.37-0.165,0.699-0.316,0.987
			c-0.162,0.31-0.376,0.577-0.637,0.797c-0.256,0.214-0.577,0.395-0.951,0.525c-0.342,0.122-0.734,0.208-1.205,0.264
			C348.584,27.55,348.092,27.569,347.506,27.563z"/>
	</g>
	<g>
		<path fill="#41C106" d="M377.049,18.327l-0.012,0.907l-4.334-0.048l-0.086,7.771l-1.084-0.012l0.084-7.772l-4.336-0.043
			l0.008-0.91L377.049,18.327z"/>
		<polygon fill="#41C106" points="373.303,27.66 370.828,27.635 370.914,19.866 366.572,19.817 366.598,17.52 377.752,17.639 
			377.727,19.938 373.387,19.893 		"/>
	</g>
</g>
<path fill="#41C106" d="M71.133,67.402c-4.808,0-12.131-0.43-12.131-0.43c-0.766-0.045-1.025-0.589-0.572-1.211
	c0,0,4.543-6.256,7.837-10.173c1.628-1.928,3.931-4.479,3.931-4.479c0.516-0.572,1.355-0.571,1.873,0c0,0,2.297,2.551,3.926,4.479
	c3.299,3.917,7.842,10.173,7.842,10.173c0.451,0.622,0.194,1.166-0.572,1.211C83.266,66.973,75.938,67.402,71.133,67.402z"/>
<path fill="#6B6B6B" d="M142.268,61.738c-0.027-6.966-16.898-12.95-41.211-15.675c-1.454-0.064-2.213,1.01-2.234,2.041
	c-0.041,0.821,0.527,1.833,1.561,2.001c0.191,0.032,0.359,0.072,0.574,0.105c19.589,2.046,32.926,6.062,32.947,10.701
	c0.021,4.522-12.609,8.482-31.379,10.621c-4.904-8.012-10.889-16.613-17.723-25.296c-3.222-4.097-6.473-7.997-9.699-11.684
	c16.645-18.511,31.313-29.759,35.555-26.44c3.279,2.567-0.459,13.421-8.836,27.666c-0.262,0.46-0.478,1.811,0.561,2.513
	c0.979,0.664,2.299,0.296,2.875-0.632c0.082-0.143,0.232-0.361,0.316-0.504c10.324-18.042,14.501-32.253,9.545-36.131
	c-6.055-4.738-23.848,7.347-43.189,28.242v-0.005c-0.266,0.286-0.531,0.567-0.797,0.857c-0.265-0.29-0.531-0.571-0.795-0.857v0.005
	C50.996,8.371,33.201-3.714,27.147,1.024c-4.955,3.878-0.778,18.089,9.548,36.131c0.08,0.143,0.232,0.361,0.314,0.504
	c0.575,0.928,1.896,1.295,2.876,0.632c1.036-0.702,0.821-2.053,0.558-2.513C32.066,21.533,28.33,10.68,31.609,8.112
	c4.241-3.318,18.908,7.93,35.555,26.44c-3.227,3.687-6.479,7.586-9.699,11.684c-6.835,8.683-12.818,17.284-17.723,25.296
	C20.973,69.394,8.34,65.434,8.363,60.911c0.021-4.638,13.357-8.655,32.946-10.701c0.218-0.033,0.383-0.073,0.575-0.105
	c1.033-0.168,1.602-1.18,1.559-2.001c-0.02-1.031-0.778-2.105-2.233-2.041C16.897,48.788,0.029,54.772,0,61.738
	c-0.029,6.526,14.721,12.228,36.529,15.222c-10.221,17.92-14.316,32.007-9.382,35.868c5.343,4.18,19.835-4.743,36.458-21.261
	c0.555-0.506,0.899-1.845-0.107-2.828c-0.648-0.631-1.805-0.762-2.607-0.174c-0.312,0.229-0.609,0.525-0.828,0.731
	c-12.967,13.011-23.582,20.222-27.082,17.482c-3.406-2.658,0.74-14.059,9.783-29.059c8.461,0.909,17.779,1.425,27.574,1.464v0.001
	c0.138,0,0.271,0.001,0.41,0.002c0.104,0.001,0.209,0.003,0.315,0.003c0.022,0,0.048-0.001,0.069-0.001
	c0.023,0,0.049,0.001,0.07,0.001c0.106,0,0.211-0.002,0.316-0.003c0.137-0.001,0.272-0.002,0.41-0.002v-0.001
	c9.793-0.039,19.113-0.555,27.574-1.464c9.043,15,13.188,26.4,9.783,29.059c-3.5,2.739-14.117-4.472-27.082-17.482
	c-0.219-0.206-0.518-0.502-0.829-0.731c-0.802-0.588-1.958-0.458-2.606,0.174c-1.007,0.983-0.664,2.322-0.108,2.828
	c16.626,16.518,31.116,25.441,36.458,21.261c4.935-3.861,0.836-17.947-9.381-35.868C127.547,73.966,142.297,68.265,142.268,61.738z
	 M71.359,73.197c-0.075,0.001-0.15,0.001-0.227,0.001c-0.074,0-0.148,0-0.227-0.001c-8.768-0.012-17.111-0.379-24.686-1.023
	c4.504-6.981,9.897-14.548,15.967-22.256c2.726-3.462,5.45-6.769,8.15-9.926v0.006c0.264-0.31,0.53-0.626,0.795-0.934
	c0.266,0.307,0.531,0.624,0.797,0.934v-0.006c2.699,3.157,5.424,6.464,8.148,9.926c6.072,7.708,11.465,15.275,15.969,22.256
	C88.473,72.817,80.129,73.185,71.359,73.197z"/>
</svg>
